<svg width="2063" height="454" viewBox="0 0 2063 454" fill="none" xmlns="http://www.w3.org/2000/svg">
<path d="M1840.61 405.619C1842.65 407.681 1845.4 409.035 1848.13 409.035C1846.07 412.451 1844.02 415.18 1840.61 416.555C1837.88 415.18 1835.15 412.451 1833.78 409.722C1836.51 409.036 1839.23 407.682 1840.61 405.619ZM1824.21 335.939C1822.17 337.98 1820.8 340.709 1820.8 343.459C1818.07 342.772 1814.65 343.459 1812.59 344.813C1811.92 341.397 1812.59 337.293 1813.96 334.564C1817.38 333.876 1820.8 334.564 1824.21 335.939ZM1802.34 376.247C1803.72 378.288 1805.09 381.017 1807.82 381.705C1806.44 384.434 1806.44 387.184 1806.44 389.913C1803.03 389.226 1800.3 387.851 1797.57 385.122C1798.26 381.705 1799.61 378.289 1802.34 376.247ZM1758.62 137.125C1742.22 158.29 1714.22 163.768 1699.18 183.579C1681.41 206.118 1680.06 236.178 1663.65 259.426C1662.98 251.218 1662.29 242.344 1662.29 234.137V34.635H1809.86C1804.4 40.78 1798.93 46.925 1794.15 53.092C1775.7 78.36 1777.07 112.523 1758.62 137.125ZM1749.06 388.538C1722.41 372.144 1700.56 349.604 1685.52 322.274C1695.08 312.712 1703.98 302.463 1711.48 290.84C1725.83 266.926 1727.87 236.866 1745.64 215.014C1761.37 194.516 1790.05 188.371 1805.09 168.539C1819.42 149.416 1824.21 124.814 1835.82 104.316V234.137C1835.82 299.734 1800.99 357.124 1749.06 388.538ZM1861.11 343.459C1860.42 340.709 1859.06 337.98 1857 335.939C1860.42 334.564 1863.83 333.877 1867.25 334.564C1869.31 337.293 1869.31 341.397 1869.31 344.813C1866.56 343.459 1863.83 342.771 1861.11 343.459ZM1873.4 381.705C1876.15 380.351 1878.19 378.289 1879.56 376.247C1881.6 378.288 1883.65 381.705 1884.33 385.121C1881.6 387.85 1878.19 389.225 1874.77 389.912C1875.46 387.184 1874.77 384.434 1873.4 381.705ZM2029.17 25.073H1652.73V234.136C1652.73 338.667 1736.76 423.388 1840.61 423.388C1944.45 423.388 2029.17 338.667 2029.17 234.136V25.073ZM1840.61 430.909C1732.66 430.909 1645.21 342.772 1645.21 234.136V17.553H2036.01V234.136C2036.01 342.771 1948.56 430.909 1840.61 430.909ZM1852.9 371.456C1852.9 364.623 1847.44 359.166 1840.61 359.166C1833.78 359.166 1828.98 364.624 1828.98 371.456C1828.98 377.601 1833.78 383.08 1840.61 383.08C1847.44 383.08 1852.9 377.601 1852.9 371.456ZM1840.61 352.333C1850.86 352.333 1859.73 360.541 1859.73 371.456C1859.73 381.705 1850.86 389.913 1840.61 389.913C1830.36 389.913 1822.17 381.705 1822.17 371.456C1822.17 360.541 1830.36 352.333 1840.61 352.333ZM1840.61 334.564C1831.05 334.564 1822.84 340.709 1826.94 348.229C1826.25 349.604 1824.9 350.958 1823.53 350.958C1817.38 344.813 1809.17 350.291 1805.76 359.853C1803.03 369.415 1806.45 378.976 1814.65 377.601C1816.01 378.288 1816.69 379.663 1816.01 381.017C1808.51 385.121 1811.24 395.37 1819.42 400.848C1826.94 406.306 1837.19 406.306 1838.57 398.098C1839.92 396.744 1841.3 396.744 1842.65 398.098C1844.03 406.306 1854.27 406.306 1862.48 400.848C1869.98 395.369 1873.4 385.12 1865.9 381.017C1865.21 379.663 1865.9 378.288 1866.56 377.601C1875.46 378.976 1878.87 369.414 1875.46 359.853C1872.73 350.291 1863.83 344.813 1858.38 350.958C1856.31 350.958 1855.65 349.604 1854.96 348.229C1859.07 340.709 1850.86 334.564 1840.61 334.564ZM1922.6 77.006C1922.6 77.006 1913.7 69.486 1913.04 77.006C1915.77 81.776 1922.6 77.006 1922.6 77.006ZM2001.84 175.371C2001.84 185.62 2012.09 190.411 2012.09 200.66C2012.09 210.909 2003.91 212.263 1998.43 210.909C1998.43 210.909 2001.84 209.534 2001.84 206.118C2001.84 193.828 1975.89 194.515 1975.89 175.371C1975.89 165.122 1982.72 157.623 1982.72 151.457C1982.72 148.728 1980.68 143.958 1976.57 142.583C1982.03 139.167 1990.93 141.229 1992.97 147.374C1995.01 142.583 1997.07 135.063 1994.32 128.23C2006.63 133.021 2012.09 141.229 2012.09 150.103C2012.09 161.706 2001.84 166.497 2001.84 175.371ZM1992.97 108.419C1984.09 111.148 1976.57 110.481 1970.43 108.419C1973.16 113.898 1977.93 120.73 1984.09 124.147C1975.89 127.563 1967.68 129.605 1961.53 130.98C1963.6 134.396 1966.32 138.479 1969.74 141.229C1963.6 141.229 1958.12 143.27 1955.39 143.958C1954.7 151.457 1952.66 167.185 1971.78 186.995C1997.07 206.118 2003.22 221.158 1983.41 246.427C1983.41 259.426 1985.45 264.884 1992.28 277.861C1991.59 279.236 1988.86 285.381 1986.14 293.568C1982.72 301.776 1980.68 310.65 1980.68 318.857C1980.68 318.857 1976.57 318.857 1976.57 323.627V330.46C1968.37 333.21 1960.85 333.21 1956.08 330.46C1956.08 325.002 1961.53 319.544 1962.22 318.857H1963.6C1966.32 318.857 1969.05 316.795 1969.05 313.399C1969.05 312.712 1969.05 311.337 1968.37 310.649C1984.76 281.964 1980.68 277.861 1955.39 257.363C1948.55 251.905 1946.51 236.178 1946.51 221.158C1936.93 197.931 1910.29 200.66 1900.04 178.121H1911.66C1917.81 178.788 1921.91 175.371 1923.95 171.955C1926.02 169.226 1923.95 165.81 1920.54 166.497C1919.87 170.601 1915.77 173.33 1911.66 173.33L1882.96 171.289C1876.81 177.434 1878.19 185.621 1888.44 189.725V194.516H1895.27C1898 202.036 1898 208.848 1895.27 213.639C1889.79 213.639 1883.65 207.494 1883.65 207.494V205.453C1883.65 202.037 1881.6 199.287 1878.19 199.287C1877.5 199.287 1876.81 199.287 1876.81 199.974C1873.4 194.516 1874.09 183.58 1865.21 170.602L1872.04 163.082L1895.27 154.874C1895.96 127.564 1928.06 121.398 1932.85 100.9C1939.68 100.9 1943.77 98.859 1947.18 92.713C1947.87 90.672 1947.87 86.568 1943.1 87.922C1941.04 94.088 1937.62 95.442 1933.54 95.442C1921.91 95.442 1913.04 93.401 1910.98 98.858C1908.94 107.066 1896.62 101.587 1896.62 101.587L1899.38 99.546H1900.04C1902.79 99.546 1904.15 98.859 1904.15 97.484C1904.15 96.13 1902.79 94.755 1900.04 94.755C1898 94.755 1896.63 96.13 1896.63 97.484L1893.9 99.546C1889.79 99.546 1889.79 96.817 1889.13 95.442C1890.48 95.442 1891.86 94.088 1891.86 92.713C1891.86 91.338 1890.48 89.984 1889.79 89.984C1889.79 89.297 1890.48 87.255 1892.54 85.193L1913.04 68.799C1915.77 66.758 1921.92 63.341 1924.65 61.966C1923.96 57.862 1926.02 51.717 1926.02 47.613C1926.02 47.613 1931.48 50.342 1934.21 55.821C1936.27 60.591 1934.9 62.654 1934.21 65.383C1934.9 66.758 1939.69 66.758 1940.35 62.654C1940.35 60.592 1940.35 58.55 1939.69 56.509C1947.87 57.176 1958.81 59.925 1975.89 57.863C1972.47 61.967 1968.37 64.696 1963.6 66.758C1971.79 68.799 1982.72 73.591 1987.51 81.777C1983.41 83.839 1979.31 85.193 1974.52 86.568C1982.72 93.4 1986.14 104.315 1992.97 108.419ZM1876.81 110.482L1900.73 129.605C1895.96 134.396 1892.54 139.854 1891.17 146.687L1878.19 123.46C1869.98 123.46 1865.21 130.293 1869.31 139.854L1866.56 143.27L1871.35 148.061C1867.25 155.56 1862.48 160.351 1857.69 162.393C1853.58 158.289 1853.58 150.79 1853.58 149.415C1854.27 149.415 1854.96 148.728 1855.65 148.061C1857.69 145.999 1857.69 142.582 1855.65 139.853C1854.96 139.853 1854.96 139.166 1854.27 139.166C1857.69 129.604 1863.83 124.147 1866.56 110.481H1876.81V110.482ZM1880.92 290.152C1880.92 284.007 1887.75 278.549 1887.75 278.549H1889.12C1892.54 278.549 1895.27 276.487 1895.27 273.07V271.716H1928.75C1928.75 258.051 1918.5 249.177 1918.5 232.761C1918.5 221.845 1922.6 215.013 1934.2 211.596C1936.93 214.325 1938.99 217.741 1941.04 221.845C1941.72 236.177 1943.77 246.426 1947.18 253.259C1947.18 253.259 1939.68 259.425 1939.68 280.59C1939.68 280.59 1908.94 279.236 1905.52 283.319H1900.73V290.152C1893.21 292.901 1885.71 292.901 1880.92 290.152ZM2019.61 234.136V34.635H1845.4V234.136C1845.4 299.734 1880.23 357.124 1932.16 388.538C1984.76 357.124 2019.61 299.734 2019.61 234.136Z" fill="black"/>
<path d="M22.4668 29.6289H37.5068L55.5468 83.1239H55.7338L73.2318 29.6289H88.5428V97.0809H77.5228V46.7729H77.3358C76.3358 51.4179 74.8778 55.7929 73.3158 60.5219L60.1918 97.0809H50.0888L37.0488 60.5219C35.4028 55.6889 34.4028 52.7729 32.9448 46.3149H32.7578V97.0809H22.4668V29.6289Z" fill="black"/>
<path d="M102.821 97.0809H114.112V48.6899H102.821V97.0809ZM102.738 40.2949H114.216V30.5459H102.738V40.2949Z" fill="black"/>
<path d="M126.881 48.677H138.172V55.239C141.276 51.968 147.109 47.761 155.858 47.761C164.336 47.761 169.815 52.781 169.815 62.343V97.069H158.504V65.176C158.504 59.801 156.233 57.343 151.317 57.343C146.38 57.343 142.276 59.884 138.172 63.634V97.068H126.881V48.677V48.677Z" fill="black"/>
<path d="M182.355 97.0809H193.666V48.6899H182.355V97.0809ZM182.251 40.2949H193.729V30.5459H182.251V40.2949Z" fill="black"/>
<path d="M202.614 90.4208L208.718 83.5878C212.363 86.6918 217.738 89.3368 223.946 89.3368C229.966 89.3368 233.612 87.7748 233.612 83.7748C233.612 79.8378 228.675 78.6708 222.842 77.2958C214.551 75.3798 204.615 73.1918 204.615 61.9848C204.615 53.5068 211.906 47.7568 222.572 47.7568C231.779 47.7568 237.425 50.4028 242.445 54.6098L237.071 61.9008C233.509 58.9638 227.78 56.6098 223.406 56.6098C217.198 56.6098 215.198 58.7968 215.198 61.5258C215.198 65.4418 220.031 66.6298 225.759 67.8998C234.071 69.7328 244.174 71.8158 244.174 83.1278C244.174 93.3348 234.967 98.0848 223.947 98.0848C215.008 98.0868 206.988 94.8788 202.614 90.4208Z" fill="black"/>
<path d="M258.525 84.4049V57.6159H250.13V48.6789H258.525V31.8059H269.732V48.6789H282.231V57.6159H269.732V81.5719C269.732 86.7799 271.294 88.8629 276.856 88.8629C278.481 88.8629 280.585 88.5919 281.668 88.2379V97.0709C280.481 97.3419 276.294 97.7169 273.481 97.7169C261.17 97.7159 258.525 93.1539 258.525 84.4049Z" fill="black"/>
<path d="M321.851 68.1708C321.205 60.7968 317.56 56.8798 310.831 56.8798C305.352 56.8798 300.332 59.9838 299.249 68.1708H321.851ZM287.854 72.9208C287.854 54.5058 300.894 47.7568 310.914 47.7568C321.767 47.7568 332.141 54.2358 332.141 73.9208V76.5668H299.061C299.519 85.3158 304.894 89.1488 311.997 89.1488C318.288 89.1488 321.934 87.0448 325.579 83.5038L331.516 89.3368C326.496 94.8778 319.85 98.0858 311.185 98.0858C299.061 98.0848 287.854 90.6898 287.854 72.9208Z" fill="black"/>
<path d="M342.444 48.677H353.651V56.614H353.839C356.839 51.781 362.047 47.761 371.254 47.761H371.983L371.608 58.072C371.066 57.968 369.233 57.885 368.608 57.885C361.4 57.885 356.838 61.26 353.651 66.447V97.069H342.444V48.677Z" fill="black"/>
<path d="M380.315 97.0809H391.626V48.6899H380.315V97.0809ZM380.211 40.2949H391.71V30.5459H380.211V40.2949Z" fill="black"/>
<path d="M404.004 83.403V48.677H415.295V80.757C415.295 86.131 417.586 88.59 422.503 88.59C427.44 88.59 431.523 86.049 435.627 82.299V48.677H446.938V97.068H435.627V90.506C432.544 93.797 426.69 97.984 417.941 97.984C409.483 97.985 404.004 92.965 404.004 83.403Z" fill="black"/>
<path d="M459.589 48.677H470.796V55.322C474.546 51.218 480.003 47.76 487.378 47.76C495.502 47.76 498.689 50.947 500.606 55.697C504.439 51.51 510.168 47.76 517.563 47.76C527.395 47.76 531.687 53.697 531.687 62.342V97.068H520.48V65.176C520.48 59.801 518.918 57.343 513.626 57.343C509.085 57.343 505.439 59.884 501.252 63.634V97.068H490.024V65.176C490.024 59.801 488.482 57.343 483.191 57.343C478.733 57.343 474.983 59.884 470.796 63.634V97.068H459.589V48.677V48.677Z" fill="black"/>
<path d="M575.423 57.61H567.049V48.673H575.423V43.757C575.423 35.654 578.798 29.363 591.109 29.363C593.192 29.363 596.942 29.717 597.754 29.821V38.466C597.025 38.279 595.192 38.112 593.921 38.112C589.921 38.112 586.63 39.195 586.63 44.403V48.673H597.212V57.61H586.63V97.085H575.423V57.61Z" fill="black"/>
<path d="M630.464 32.825H640.755V43.845H630.464V32.825ZM612.507 32.825H622.714V43.845H612.507V32.825ZM605.133 83.403V48.6769H616.424V80.757C616.424 86.131 618.715 88.5899 623.632 88.5899C628.548 88.5899 632.652 86.049 636.756 82.299V48.6769H648.067V97.0679H636.756V90.5059C633.652 93.7969 627.819 97.9839 619.07 97.9839C610.591 97.9849 605.133 92.965 605.133 83.403Z" fill="black"/>
<path d="M660.715 48.677H671.922V56.614H672.11C675.11 51.781 680.318 47.761 689.525 47.761H690.254L689.879 58.072C689.337 57.968 687.504 57.885 686.879 57.885C679.671 57.885 675.109 61.26 671.922 66.447V97.069H660.715V48.677Z" fill="black"/>
<path d="M60.3749 138.993L33.8569 170.344V138.993H22.4619V206.424H33.8569V184.281L43.4189 173.719L63.6669 206.424H76.7069L50.9179 164.97L73.8739 138.993H60.3749Z" fill="black"/>
<path d="M82.8057 192.767V158.041H94.1167V190.121C94.1167 195.495 96.3877 197.954 101.304 197.954C106.22 197.954 110.324 195.413 114.428 191.684V158.041H125.739V206.432H114.428V199.87C111.345 203.161 105.491 207.348 96.7417 207.348C88.2847 207.349 82.8057 202.329 82.8057 192.767Z" fill="black"/>
<path d="M149.9 138.993H138.589V206.424H149.9V138.993Z" fill="black"/>
<path d="M166.563 193.769V166.98H158.168V158.043H166.563V141.17H177.77V158.043H190.269V166.98H177.77V190.936C177.77 196.144 179.332 198.227 184.873 198.227C186.519 198.227 188.623 197.956 189.706 197.602V206.434C188.519 206.705 184.332 207.08 181.519 207.08C169.208 207.08 166.563 202.518 166.563 193.769Z" fill="black"/>
<path d="M198.679 192.767V158.041H209.97V190.121C209.97 195.495 212.261 197.954 217.178 197.954C222.095 197.954 226.198 195.413 230.302 191.684V158.041H241.613V206.432H230.3V199.87C227.217 203.161 221.363 207.348 212.614 207.348C204.136 207.349 198.679 202.329 198.679 192.767Z" fill="black"/>
<path d="M254.261 158.041H265.468V165.978H265.656C268.656 161.145 273.864 157.125 283.071 157.125H283.8L283.425 167.436C282.883 167.332 281.05 167.249 280.425 167.249C273.217 167.249 268.655 170.624 265.468 175.811V206.433H254.261V158.041V158.041Z" fill="black"/>
<path d="M318.696 192.767V158.041H329.987V190.121C329.987 195.495 332.278 197.954 337.195 197.954C342.111 197.954 346.215 195.413 350.319 191.684V158.041H361.63V206.432H350.319V199.87C347.215 203.161 341.382 207.348 332.633 207.348C324.154 207.349 318.696 202.329 318.696 192.767Z" fill="black"/>
<path d="M374.278 158.041H385.589V164.603C388.672 161.332 394.505 157.125 403.254 157.125C411.732 157.125 417.211 162.145 417.211 171.707V206.433H405.9V174.54C405.9 169.166 403.629 166.707 398.713 166.707C393.776 166.707 389.693 169.248 385.589 172.998V206.432H374.278V158.041V158.041Z" fill="black"/>
<path d="M461.84 191.855V172.44C458.84 168.524 454.466 166.42 450.445 166.42C441.967 166.42 438.509 171.899 438.509 182.648C438.509 192.855 442.884 197.959 450.091 197.959C454.737 197.958 459.195 195.042 461.84 191.855ZM427.302 182.377C427.302 165.608 435.593 157.129 447.987 157.129C453.195 157.129 458.299 159.233 461.84 163.233V138.985H473.047V194.584C473.047 200.417 473.422 203.979 474.505 206.437H462.944C462.298 205.062 461.84 202.333 461.84 199.875C458.299 203.979 453.632 207.166 446.446 207.166C435.405 207.166 427.302 199.146 427.302 182.377Z" fill="black"/>
<path d="M509.415 138.993H520.893L529.476 173.906C530.83 179.28 532.101 184.28 533.017 189.571H533.205C534.122 184.384 535.309 179.364 536.663 173.989L544.787 138.992H555.723L564.097 174.176C565.555 179.925 566.659 183.925 567.659 189.57H567.847C568.847 183.737 569.847 180.196 571.118 174.446L579.513 138.991H590.158L572.389 206.443H562.452L550.328 154.761H550.161L537.391 206.443H527.371L509.415 138.993Z" fill="black"/>
<path d="M599.44 206.424H610.751V158.033H599.44V206.424ZM599.356 149.659H610.855V139.91H599.356V149.659Z" fill="black"/>
<path d="M619.715 199.785L625.819 192.952C629.465 196.056 634.839 198.681 641.047 198.681C647.067 198.681 650.713 197.139 650.713 193.14C650.713 189.203 645.776 188.036 639.943 186.661C631.652 184.745 621.716 182.557 621.716 171.35C621.716 162.872 629.007 157.122 639.673 157.122C648.88 157.122 654.526 159.768 659.546 163.955L654.172 171.267C650.61 168.33 644.881 165.976 640.507 165.976C634.299 165.976 632.299 168.163 632.299 170.892C632.299 174.808 637.132 175.996 642.861 177.266C651.173 179.099 661.276 181.182 661.276 192.494C661.276 202.701 652.069 207.43 641.049 207.43C632.109 207.43 624.089 204.243 619.715 199.785Z" fill="black"/>
<path d="M667.954 199.785L674.058 192.952C677.704 196.056 683.078 198.681 689.286 198.681C695.306 198.681 698.952 197.139 698.952 193.14C698.952 189.203 694.015 188.036 688.182 186.661C679.891 184.745 669.955 182.557 669.955 171.35C669.955 162.872 677.246 157.122 687.912 157.122C697.119 157.122 702.765 159.768 707.785 163.955L702.411 171.267C698.849 168.33 693.12 165.976 688.746 165.976C682.538 165.976 680.538 168.163 680.538 170.892C680.538 174.808 685.371 175.996 691.099 177.266C699.411 179.099 709.514 181.182 709.514 192.494C709.514 202.701 700.307 207.43 689.287 207.43C680.348 207.43 672.328 204.243 667.954 199.785Z" fill="black"/>
<path d="M750.9 177.535C750.254 170.161 746.609 166.244 739.88 166.244C734.401 166.244 729.381 169.348 728.298 177.535H750.9ZM716.903 182.285C716.903 163.87 729.943 157.121 739.963 157.121C750.816 157.121 761.19 163.6 761.19 183.285V185.931H728.11C728.568 194.68 733.943 198.513 741.046 198.513C747.337 198.513 750.983 196.409 754.628 192.868L760.565 198.701C755.545 204.242 748.899 207.45 740.234 207.45C728.11 207.449 716.903 200.054 716.903 182.285Z" fill="black"/>
<path d="M771.494 158.041H782.785V164.603C785.889 161.332 791.722 157.125 800.471 157.125C808.949 157.125 814.428 162.145 814.428 171.707V206.433H803.117V174.54C803.117 169.166 800.846 166.707 795.909 166.707C790.993 166.707 786.889 169.248 782.785 172.998V206.432H771.494V158.041Z" fill="black"/>
<path d="M822.984 199.785L829.088 192.952C832.733 196.056 838.108 198.681 844.316 198.681C850.336 198.681 853.982 197.139 853.982 193.14C853.982 189.203 849.045 188.036 843.212 186.661C834.921 184.745 824.985 182.557 824.985 171.35C824.985 162.872 832.276 157.122 842.942 157.122C852.149 157.122 857.795 159.768 862.815 163.955L857.44 171.267C853.878 168.33 848.149 165.976 843.775 165.976C837.567 165.976 835.567 168.163 835.567 170.892C835.567 174.808 840.4 175.996 846.128 177.266C854.44 179.099 864.543 181.182 864.543 192.494C864.543 202.701 855.335 207.43 844.316 207.43C835.379 207.43 827.359 204.243 822.984 199.785Z" fill="black"/>
<path d="M871.936 182.285C871.936 163.787 884.414 157.121 895.184 157.121C907.204 157.121 912.307 163.787 915.224 171.265L905.746 174.619C903.83 169.161 900.372 166.516 894.997 166.516C888.623 166.516 883.227 170.703 883.227 182.285C883.227 192.576 887.435 198.242 894.809 198.242C899.913 198.242 903.475 196.68 906.12 189.847L915.411 193.222C911.953 200.971 906.204 207.45 894.538 207.45C883.331 207.449 871.936 199.971 871.936 182.285Z" fill="black"/>
<path d="M924.42 138.993H935.731V164.595C938.814 161.324 944.647 157.137 953.396 157.137C961.874 157.137 967.353 162.137 967.353 171.719V206.445H956.042V174.531C956.042 169.157 953.771 166.698 948.855 166.698C943.918 166.698 939.814 169.26 935.731 172.989V206.444H924.42V138.993Z" fill="black"/>
<path d="M1008.1 192.959V182.293C994.707 184.105 987.583 187.397 987.583 192.667C987.583 196.5 990.229 198.5 994.332 198.5C1000.08 198.5 1004.54 196.313 1008.1 192.959ZM976.563 194.771C976.563 184.293 985.5 177.273 1008.1 174.71V173.252C1008.1 168.44 1005.54 166.336 1000.17 166.336C993.416 166.336 987.958 169.607 983.854 172.898L978.375 165.878C983.583 161.149 991.686 157.129 1001.71 157.129C1014.66 157.129 1019.12 163.337 1019.12 174.627V194.583C1019.12 200.416 1019.5 203.978 1020.5 206.436H1009.19C1008.56 204.436 1008.1 202.978 1008.1 200.249C1003.17 205.249 997.436 207.165 990.229 207.165C982.396 207.166 976.563 202.791 976.563 194.771Z" fill="black"/>
<path d="M1035.32 166.974H1026.92V158.037H1035.32V153.121C1035.32 145.018 1038.69 138.727 1050.98 138.727C1053.09 138.727 1056.82 139.081 1057.65 139.185V147.83C1056.92 147.643 1055.09 147.476 1053.82 147.476C1049.82 147.476 1046.52 148.559 1046.52 153.767V158.037H1057.11V166.974H1046.52V206.449H1035.32V166.974V166.974Z" fill="black"/>
<path d="M1071.61 193.769V166.98H1063.23V158.043H1071.61V141.17H1082.82V158.043H1095.31V166.98H1082.82V190.936C1082.82 196.144 1084.38 198.227 1089.92 198.227C1091.56 198.227 1093.67 197.956 1094.75 197.602V206.434C1093.56 206.705 1089.38 207.08 1086.56 207.08C1074.25 207.08 1071.61 202.518 1071.61 193.769Z" fill="black"/>
<path d="M52.9951 301.219V281.804C49.9951 277.888 45.6211 275.784 41.6001 275.784C33.1221 275.784 29.6641 281.263 29.6641 292.012C29.6641 302.219 34.0391 307.323 41.2461 307.323C45.8911 307.323 50.3491 304.406 52.9951 301.219ZM18.4561 291.741C18.4561 274.972 26.7471 266.493 39.1411 266.493C44.3491 266.493 49.4521 268.597 52.9941 272.597V248.349H64.201V303.948C64.201 309.781 64.5761 313.343 65.659 315.801H54.0991C53.4531 314.447 52.9951 311.697 52.9951 309.239C49.4541 313.343 44.7871 316.53 37.6011 316.53C26.5601 316.53 18.4561 308.51 18.4561 291.741Z" fill="black"/>
<path d="M108.229 286.902C107.583 279.528 103.938 275.611 97.2094 275.611C91.7304 275.611 86.7104 278.715 85.6274 286.902H108.229ZM74.2324 291.651C74.2324 273.236 87.2724 266.487 97.2924 266.487C108.145 266.487 118.519 272.966 118.519 292.651V295.297H85.4404C85.8984 304.046 91.2734 307.879 98.3764 307.879C104.667 307.879 108.313 305.775 111.958 302.213L117.895 308.067C112.875 313.608 106.229 316.816 97.5644 316.816C85.4404 316.816 74.2324 309.421 74.2324 291.651Z" fill="black"/>
<path d="M125.54 309.15L131.644 302.317C135.289 305.421 140.664 308.046 146.872 308.046C152.892 308.046 156.538 306.504 156.538 302.505C156.538 298.568 151.601 297.401 145.768 296.026C137.477 294.109 127.541 291.922 127.541 280.715C127.541 272.237 134.832 266.487 145.498 266.487C154.705 266.487 160.351 269.133 165.371 273.32L159.997 280.611C156.435 277.715 150.706 275.341 146.332 275.341C140.124 275.341 138.124 277.528 138.124 280.257C138.124 284.173 142.957 285.361 148.685 286.631C156.997 288.464 167.1 290.547 167.1 301.859C167.1 312.066 157.893 316.795 146.873 316.795C137.934 316.795 129.914 313.608 125.54 309.15Z" fill="black"/>
<path d="M205.649 248.358H217.043V305.415H248.124V315.809H205.649V248.358Z" fill="black"/>
<path d="M287.147 302.325V291.66C273.752 293.472 266.628 296.764 266.628 302.034C266.628 305.867 269.274 307.867 273.377 307.867C279.127 307.866 283.585 305.679 287.147 302.325ZM255.608 304.138C255.608 293.66 264.545 286.64 287.147 284.077V282.619C287.147 277.807 284.585 275.703 279.21 275.703C272.461 275.703 267.003 278.974 262.899 282.265L257.441 275.245C262.628 270.516 270.731 266.496 280.772 266.496C293.708 266.496 298.166 272.704 298.166 283.994V303.95C298.166 309.783 298.541 313.345 299.541 315.803H288.23C287.605 313.803 287.147 312.345 287.147 309.595C282.231 314.615 276.481 316.532 269.274 316.532C261.441 316.532 255.608 312.158 255.608 304.138Z" fill="black"/>
<path d="M310.493 267.406H321.784V273.968C324.888 270.697 330.721 266.49 339.47 266.49C347.948 266.49 353.427 271.51 353.427 281.072V315.798H342.116V283.905C342.116 278.531 339.845 276.072 334.908 276.072C329.992 276.072 325.888 278.613 321.784 282.363V315.797H310.493V267.406V267.406Z" fill="black"/>
<path d="M398.054 301.219V281.804C395.054 277.888 390.68 275.784 386.659 275.784C378.181 275.784 374.723 281.263 374.723 292.012C374.723 302.219 379.098 307.323 386.305 307.323C390.95 307.323 395.408 304.406 398.054 301.219ZM363.516 291.741C363.516 274.972 371.807 266.493 384.201 266.493C389.409 266.493 394.512 268.597 398.054 272.597V248.349H409.261V303.948C409.261 309.781 409.636 313.343 410.719 315.801H399.158C398.512 314.447 398.054 311.697 398.054 309.239C394.513 313.343 389.847 316.53 382.66 316.53C371.619 316.53 363.516 308.51 363.516 291.741Z" fill="black"/>
<path d="M453.285 286.902C452.639 279.528 448.994 275.611 442.265 275.611C436.786 275.611 431.766 278.715 430.683 286.902H453.285ZM419.288 291.651C419.288 273.236 432.328 266.487 442.348 266.487C453.201 266.487 463.575 272.966 463.575 292.651V295.297H430.495C430.953 304.046 436.328 307.879 443.431 307.879C449.722 307.879 453.368 305.775 457.013 302.213L462.95 308.067C457.93 313.608 451.284 316.816 442.619 316.816C430.496 316.816 419.288 309.421 419.288 291.651Z" fill="black"/>
<path d="M470.601 309.15L476.705 302.317C480.35 305.421 485.725 308.046 491.933 308.046C497.932 308.046 501.599 306.504 501.599 302.505C501.599 298.568 496.662 297.401 490.829 296.026C482.538 294.109 472.602 291.922 472.602 280.715C472.602 272.237 479.893 266.487 490.559 266.487C499.766 266.487 505.412 269.133 510.432 273.32L505.058 280.611C501.496 277.715 495.767 275.341 491.393 275.341C485.185 275.341 483.185 277.528 483.185 280.257C483.185 284.173 488.018 285.361 493.746 286.631C502.037 288.464 512.161 290.547 512.161 301.859C512.161 312.066 502.954 316.795 491.934 316.795C482.996 316.795 474.976 313.608 470.601 309.15Z" fill="black"/>
<path d="M550.709 248.358H562.291L594.184 296.478H594.371V248.358H604.933V315.809H594.538L561.458 266.668H561.27V315.809H550.709V248.358Z" fill="black"/>
<path d="M652.336 291.651C652.336 282.631 648.503 276.069 640.025 276.069C631.922 276.069 627.714 281.902 627.714 291.651C627.714 300.858 631.464 307.42 640.025 307.42C648.149 307.421 652.336 301.588 652.336 291.651ZM616.423 291.651C616.423 273.778 628.172 266.487 640.025 266.487C651.795 266.487 663.627 273.778 663.627 291.651C663.627 309.337 651.795 316.815 640.025 316.815C628.276 316.816 616.423 309.337 616.423 291.651Z" fill="black"/>
<path d="M673.775 267.406H684.982V275.343H685.17C688.17 270.51 693.378 266.49 702.585 266.49H703.314L702.939 276.801C702.397 276.697 700.564 276.613 699.939 276.613C692.731 276.613 688.169 279.988 684.982 285.175V315.797H673.775V267.406Z" fill="black"/>
<path d="M743.236 301.219V281.804C740.236 277.888 735.862 275.784 731.841 275.784C723.363 275.784 719.905 281.263 719.905 292.012C719.905 302.219 724.28 307.323 731.487 307.323C736.132 307.323 740.59 304.406 743.236 301.219ZM708.698 291.741C708.698 274.972 716.989 266.493 729.383 266.493C734.591 266.493 739.695 268.597 743.236 272.597V248.349H754.443V303.948C754.443 309.781 754.818 313.343 755.901 315.801H744.34C743.694 314.447 743.236 311.697 743.236 309.239C739.695 313.343 735.049 316.53 727.842 316.53C716.801 316.53 708.698 308.51 708.698 291.741Z" fill="black"/>
<path d="M767.309 267.406H778.516V275.343H778.703C781.703 270.51 786.911 266.49 796.118 266.49H796.847L796.472 276.801C795.93 276.697 794.097 276.613 793.472 276.613C786.264 276.613 781.702 279.988 778.515 285.175V315.797H767.308V267.406H767.309Z" fill="black"/>
<path d="M804.974 248.358H816.265V273.96C819.369 270.689 825.202 266.502 833.951 266.502C842.429 266.502 847.908 271.502 847.908 281.084V315.81H836.597V283.896C836.597 278.521 834.326 276.063 829.41 276.063C824.473 276.063 820.369 278.625 816.265 282.354V315.809H804.974V248.358Z" fill="black"/>
<path d="M891.794 286.902C891.148 279.528 887.503 275.611 880.774 275.611C875.295 275.611 870.275 278.715 869.192 286.902H891.794ZM857.798 291.651C857.798 273.236 870.838 266.487 880.858 266.487C891.711 266.487 902.085 272.966 902.085 292.651V295.297H869.005C869.463 304.046 874.838 307.879 881.941 307.879C888.232 307.879 891.878 305.775 895.523 302.213L901.46 308.067C896.44 313.608 889.795 316.816 881.129 316.816C869.005 316.816 857.798 309.421 857.798 291.651Z" fill="black"/>
<path d="M912.472 315.809H923.783V267.397H912.472V315.809ZM912.388 259.023H923.887V249.274H912.388V259.023Z" fill="black"/>
<path d="M936.553 267.406H947.844V273.968C950.948 270.697 956.781 266.49 965.551 266.49C974.029 266.49 979.487 271.51 979.487 281.072V315.798H968.196V283.905C968.196 278.531 965.904 276.072 960.988 276.072C956.051 276.072 951.947 278.613 947.843 282.363V315.797H936.552V267.406H936.553Z" fill="black"/>
<path d="M1013.13 283.167H990.631V291.187H1013.13V283.167Z" fill="black"/>
<path d="M1017.21 248.358H1028.69L1037.27 283.271C1038.62 288.645 1039.89 293.666 1040.81 298.936H1041C1041.91 293.749 1043.1 288.729 1044.45 283.354L1052.58 248.357H1063.52L1071.89 283.541C1073.35 289.29 1074.45 293.29 1075.45 298.935H1075.64C1076.64 293.102 1077.64 289.561 1078.91 283.811L1087.3 248.356H1097.97L1080.2 315.808H1070.26L1058.14 264.126H1057.95L1045.18 315.808H1035.16L1017.21 248.358Z" fill="black"/>
<path d="M1134.55 286.902C1133.9 279.528 1130.26 275.611 1123.53 275.611C1118.05 275.611 1113.03 278.715 1111.95 286.902H1134.55ZM1100.55 291.651C1100.55 273.236 1113.59 266.487 1123.61 266.487C1134.44 266.487 1144.84 272.966 1144.84 292.651V295.297H1111.76C1112.22 304.046 1117.59 307.879 1124.7 307.879C1130.99 307.879 1134.63 305.775 1138.28 302.213L1144.21 308.067C1139.19 313.608 1132.55 316.816 1123.88 316.816C1111.76 316.816 1100.55 309.421 1100.55 291.651Z" fill="black"/>
<path d="M1151.86 309.15L1157.97 302.317C1161.61 305.421 1166.99 308.046 1173.2 308.046C1179.19 308.046 1182.86 306.504 1182.86 302.505C1182.86 298.568 1177.92 297.401 1172.09 296.026C1163.8 294.109 1153.86 291.922 1153.86 280.715C1153.86 272.237 1161.16 266.487 1171.82 266.487C1181.03 266.487 1186.67 269.133 1191.69 273.32L1186.32 280.611C1182.76 277.715 1177.03 275.341 1172.63 275.341C1166.45 275.341 1164.45 277.528 1164.45 280.257C1164.45 284.173 1169.28 285.361 1175.01 286.631C1183.3 288.464 1193.42 290.547 1193.42 301.859C1193.42 312.066 1184.22 316.795 1173.2 316.795C1164.26 316.795 1156.24 313.608 1151.86 309.15Z" fill="black"/>
<path d="M1207.78 303.134V276.345H1199.38V267.408H1207.78V250.535H1218.98V267.408H1231.46V276.345H1218.98V300.301C1218.98 305.509 1220.52 307.592 1226.09 307.592C1227.73 307.592 1229.84 307.321 1230.92 306.967V315.799C1229.73 316.07 1225.54 316.445 1222.73 316.445C1210.42 316.445 1207.78 311.883 1207.78 303.134Z" fill="black"/>
<path d="M1246.64 276.338H1238.26V267.401H1246.64V262.485C1246.64 254.382 1250.01 248.091 1262.3 248.091C1264.41 248.091 1268.13 248.445 1268.97 248.549V257.194C1268.24 257.007 1266.41 256.84 1265.13 256.84C1261.13 256.84 1257.84 257.923 1257.84 263.131V267.401H1268.43V276.338H1257.84V315.813H1246.64V276.338V276.338Z" fill="black"/>
<path d="M1305.74 302.325V291.66C1292.34 293.472 1285.22 296.764 1285.22 302.034C1285.22 305.867 1287.86 307.867 1291.97 307.867C1297.72 307.866 1302.17 305.679 1305.74 302.325ZM1274.2 304.138C1274.2 293.66 1283.13 286.64 1305.74 284.077V282.619C1305.74 277.807 1303.17 275.703 1297.8 275.703C1291.05 275.703 1285.59 278.974 1281.49 282.265L1276.03 275.245C1281.22 270.516 1289.32 266.496 1299.36 266.496C1312.3 266.496 1316.76 272.704 1316.76 283.994V303.95C1316.76 309.783 1317.13 313.345 1318.13 315.803H1306.82C1306.19 313.803 1305.74 312.345 1305.74 309.595C1300.8 314.615 1295.07 316.532 1287.86 316.532C1280.03 316.532 1274.2 312.158 1274.2 304.138Z" fill="black"/>
<path d="M1340.68 248.358H1329.37V315.81H1340.68V248.358Z" fill="black"/>
<path d="M1385.01 286.902C1384.37 279.528 1380.72 275.611 1373.97 275.611C1368.51 275.611 1363.49 278.715 1362.41 286.902H1385.01ZM1351.02 291.651C1351.02 273.236 1364.06 266.487 1374.08 266.487C1384.91 266.487 1395.3 272.966 1395.3 292.651V295.297H1362.22C1362.68 304.046 1368.06 307.879 1375.16 307.879C1381.45 307.879 1385.1 305.775 1388.74 302.213L1394.68 308.067C1389.66 313.608 1383.01 316.816 1374.35 316.816C1362.22 316.816 1351.02 309.421 1351.02 291.651Z" fill="black"/>
<path d="M1405.61 267.406H1416.9V273.968C1420 270.697 1425.83 266.49 1434.58 266.49C1443.06 266.49 1448.54 271.51 1448.54 281.072V315.798H1437.23V283.905C1437.23 278.531 1434.96 276.072 1430.02 276.072C1425.11 276.072 1421 278.613 1416.9 282.363V315.797H1405.61V267.406Z" fill="black"/>
</svg>
