<svg xmlns="http://www.w3.org/2000/svg" width="1697.5" height="1573.561" viewBox="0 0 1697.5 1573.561">
  <defs>
    <style>
      .cls-1 {
        fill-rule: evenodd;
      }
    </style>
  </defs>
  <path id="Time_Sales_Ltd.svg" data-name="Time Sales Ltd.svg" class="cls-1" d="M25.237,189.2H155.382v311h127.61V189.2H413.136V87.22H25.237V189.2ZM467.5,165.251H582.156V87.22H467.5v78.031Zm0,334.939H582.156V201.026H467.5V500.19Zm188.738,0H771.176V347.51q0-34.082,12.72-49.016t32.51-14.93a33.967,33.967,0,0,1,21.2,6.9,36.526,36.526,0,0,1,12.72,18.169q2.258,7.046,2.263,26.762V500.19H967.52V345.819q0-32.391,12.35-47.043t32.57-14.649q17.115,0,28.63,15.494,7.86,9.864,7.86,30.142V500.19h114.93V312.3q0-60.846-27-89.439-27.015-28.589-75.11-28.592-32.64,0-54.86,10.563T957.66,244.69q-13.257-25.07-34.134-37.748t-56.7-12.676q-33.288,0-56.846,11.549T763.288,244.69V201.026H656.242V500.19ZM1564.44,366.1q0-59.157-19.44-96.06a131.247,131.247,0,0,0-56.62-56.339q-37.185-19.437-101.41-19.437-79.17,0-124.09,43.381-44.94,43.385-44.93,113.525,0,49.3,22.39,85.777t56.49,53.241q34.08,16.757,93.52,16.761,68.445,0,105.07-19.578t62.54-64.65L1445,412.3q-10.71,13.522-20,18.874a65.176,65.176,0,0,1-32.12,8.451q-26.76,0-43.38-19.437-11.82-13.521-14.93-41.128h229.87V366.1Zm-229.59-41.973q2.82-26.76,13.24-40.283,16.335-21.688,43.67-21.691,23.655,0,38.17,14.367t17.89,47.607H1334.85ZM77.915,1043.59q40.565,40.56,145.92,40.56,60,0,99.439-17.32t61.411-50.85a130.924,130.924,0,0,0,21.972-73.241q0-33.8-16.479-61.128T337.5,835.835q-36.2-18.447-119.863-36.481-33.8-7.038-42.818-15.211-9.3-7.884-9.3-17.747,0-13.523,11.268-22.959T210.313,734q27.044,0,42.4,12.677t20.141,40.564L393.136,780.2q-7.89-64.227-49.438-93.665T222.99,657.1q-64.512,0-101.553,16.2T65.943,717.8q-18.453,28.311-18.451,60.142,0,48.454,36.057,79.721,35.771,31.269,119.722,50.143,51.267,11.27,65.354,23.944t14.085,28.733q0,16.9-14.789,29.719t-42.114,12.815q-36.624,0-56.34-25.068-12.116-15.489-16.057-45.072L32,940.486Q37.346,1003.023,77.915,1043.59ZM585.536,848.37q14.084-9.012,42.255-9.014,21.972,0,30.7,8.451t8.733,29.578a389.192,389.192,0,0,1-40.565,13.662Q607.5,896.264,543,909.217q-53.809,10.709-73.806,32.677t-20,56.058q0,36.342,27.747,61.128t81.27,24.79q40.281,0,70.707-12.39,22.25-9.3,44.79-30.99,1.967,12.96,3.944,19.01t8.451,17.61H793.711q-9.018-18.6-11.69-30.56t-2.676-33.1V881.329q0-21.127-8.451-44.368t-23.1-35.916q-20.851-18.309-52.115-24.086t-82.819-5.774a349.865,349.865,0,0,0-59.72,4.789q-27.612,4.792-43.382,13.521-21.972,12.115-33.663,28.593T458.208,863.3l109.581,11.55q6.761-19.437,17.747-26.48h0Zm81.693,105.074q0,21.411-6.9,34.79t-23.381,22.676a71.311,71.311,0,0,1-35.635,9.3q-18.315,0-27.747-8.6-9.441-8.58-9.437-22.109,0-11.83,9.578-21.127,9.3-9.012,44.226-18.311,25.63-6.477,49.3-14.93v18.311ZM852.023,1077.11H966.956V664.139H852.023V1077.11Zm520.3-134.089q0-59.157-19.44-96.059a131.19,131.19,0,0,0-56.62-56.34q-37.185-19.437-101.41-19.437-79.155,0-124.09,43.381t-44.93,113.525q0,49.3,22.4,85.779t56.48,53.24q34.08,16.755,93.52,16.76,68.46,0,105.07-19.58,36.63-19.575,62.54-64.648L1252.88,989.22q-10.71,13.521-20,18.87a65.1,65.1,0,0,1-32.11,8.45q-26.775,0-43.39-19.433-11.82-13.521-14.93-41.128h229.87V943.021Zm-229.58-41.973q2.8-26.76,13.24-40.283,16.335-21.688,43.66-21.691,23.655,0,38.17,14.367t17.89,47.607H1142.74Zm306.63,159.442q34.785,23.385,116.76,23.38,58.02,0,91.69-14.49t49.3-38.98q15.63-24.48,15.63-50.371a80.87,80.87,0,0,0-14.79-46.995q-14.775-21.385-42.67-32.924T1580.21,882.1q-37.74-4.5-49.01-10.128t-11.27-16.594q0-9.843,8.87-16.734t28.32-6.893q19.14,0,32.67,9.014,9.855,6.76,14.09,21.128l108.73-10.705q-11.265-29.295-28.31-46.48t-42.53-25.353q-25.5-8.168-79.02-8.169-50.7,0-80.85,10.555t-47.32,31.937q-17.19,21.391-17.19,50.939a77.826,77.826,0,0,0,15.92,48.122q15.915,21.108,39.15,29.97,23.25,8.868,82.97,19.275,39.99,7.038,49.29,11.814,12.96,6.753,12.96,19.129,0,10.971-9.86,18.284-12.675,9.84-35.77,9.84-21.135,0-33.81-8.73T1518.52,983.3l-113.8,10.7Q1414.575,1037.106,1449.37,1060.49ZM54.252,1654.03H381.023V1552.34H181.862V1241.06H54.252v412.97Zm400.576-354.1v54.93H412.573v83.95h42.255v105.22q0,50.085,9.718,72.45t30,33.34q20.283,10.965,63.1,10.97,36.9,0,79.439-9.3l-8.451-79.14q-22.818,7.32-35.494,7.31-14.09,0-19.719-9.56-3.664-6.18-3.662-25.3V1438.81h63.1v-83.95h-63.1v-113.8Zm431.844-58.87v143.1a110.653,110.653,0,0,0-38.734-27.04q-21.832-9.015-48.593-9.02-54.93,0-90.566,39.44t-35.635,113.81q0,66.48,32.255,112.96t93.383,46.48q30.423,0,55.213-12.96,18.592-9.855,41.128-38.03v44.23H1002.45V1241.06H886.672Zm-13.8,318.6q-14.651,17.19-36.621,17.18-20.567,0-34.508-17.04T787.8,1506.14q0-39.15,13.521-55.78t33.522-16.62q22.818,0,37.748,17.32t14.93,52.54Q887.517,1542.48,872.869,1559.66Zm199.721,94.37h122.54V1539.1H1072.59v114.93Z" transform="translate(-25.25 -87.219)"/>
</svg>
